
<svg enable-background="new 0 0 64 64" viewBox="0 0 64 64" xmlns="http://www.w3.org/2000/svg"><path d="m60.2 53.8c0 3.5-2.9 6.4-6.4 6.4h-43.6c-3.5 0-6.4-2.9-6.4-6.4v-43.6c0-3.5 2.9-6.4 6.4-6.4h43.5c3.5 0 6.4 2.9 6.4 6.4v43.6z" fill="#fff"/><g fill="#121212"><path d="m53.8 0h-43.6c-5.6 0-10.2 4.6-10.2 10.2v43.5c0 5.7 4.6 10.3 10.2 10.3h43.5c5.7 0 10.3-4.6 10.3-10.2v-43.6c0-5.6-4.6-10.2-10.2-10.2zm6.4 53.8c0 3.5-2.9 6.4-6.4 6.4h-43.6c-3.5 0-6.4-2.9-6.4-6.4v-43.6c0-3.5 2.9-6.4 6.4-6.4h43.5c3.5 0 6.4 2.9 6.4 6.4v43.6z"/><path d="m38.3 49.3h-12.6c-.3 0-.5-.2-.5-.5v-21.5c0-.3-.3-.6-.6-.6h-11.1c-.3 0-.5-.2-.5-.5v-11c0-.3.2-.5.5-.5h37.1c.3 0 .5.2.5.5v11.1c0 .3-.2.5-.5.5h-11.3c-.3 0-.5.2-.5.5v21.6c0 .2-.2.4-.5.4z"/></g></svg>